<svg viewBox="0 0 100 100" xmlns="http://www.w3.org/2000/svg" xmlns:svg="http://www.w3.org/2000/svg" version="1.1">
  <rect fill="#000" height="100" rx="21" ry="21" width="100" x="0" y="0"/>
  <path d="m10.24,57.37l0.77,-8.65l5.29,0l-0.76,8.65l-5.29,0zm12.52,-7.12l0.69,-7.6l5.29,0l-0.69,7.6l-5.29,0zm-12.52,7.12l0.16,-1.53l17.14,0l-0.13,1.53l-17.17,0zm1.15,-13.2l0.13,-1.52l17.09,0l-0.13,1.52l-17.09,0zm-0.1,6.08l-0.28,-1.52l16.76,0l0.28,1.52l-16.76,0zm19.3,7.12l1.27,-14.73l5.29,0l-1.27,14.73l-5.29,0zm11.91,0l1.27,-14.73l5.29,0l-1.27,14.73l-5.29,0zm-11.91,0l0.15,-1.53l16.84,0l-0.13,1.53l-16.86,0zm1.37,-13.2l0.13,-1.52l16.84,0l-0.13,1.52l-16.84,0zm19.38,9.44l1.07,-10.07l5.29,0l-1.07,10.07l-5.29,0zm0,0l0.31,-1.53l16.61,0l-0.13,1.53l-16.79,0zm11.52,3.77l1.27,-14.73l5.29,0l-1.27,14.73l-5.29,0zm8.41,0l1.27,-14.73l5.29,0l-1.27,14.73l-5.29,0zm11.93,0l1.27,-14.73l5.29,0l-1.27,14.73l-5.29,0zm-11.93,0l0.16,-1.53l16.86,0l-0.13,1.53l-16.89,0zm1.38,-13.2l0.13,-1.52l16.86,0l-0.13,1.52l-16.86,0zm-0.54,6.08l0.13,-1.52l16.87,0l-0.13,1.52l-16.86,0z" fill="#fff" id="text1" stroke-width="2.05"/>
</svg>